{"title":"Orphans[1998]BDRIP[Eng]","uid":14418919,"size":1468234086,"categoryP":"video","categoryS":"movies","magnet":"?xt=urn:btih:90cccfc07ed6d3f8be36d1eb2778e56dfa08a11e&amp;dn=Orphans%5B1998%5DBDRIP%5BEng%5D&amp;tr=udp%3A%2F%2Ftracker.leechers-paradise.org%3A6969&amp;tr=udp%3A%2F%2Fzer0day.ch%3A1337&amp;tr=udp%3A%2F%2Fopen.demonii.com%3A1337&amp;tr=udp%3A%2F%2Ftracker.coppersurfer.tk%3A6969&amp;tr=udp%3A%2F%2Fexodus.desync.com%3A6969","seeders":0,"leechers":1,"uploader":"Fanchig","files":2,"time":1461522266,"description":"Four siblings gathered together for their mother's funeral in Glasgow face individual torments over night during a tumultuous storm that rips the roof off the church. \r\n\r\nGeneral\r\nFormat                                   : Matroska\r\nFormat version                           : Version 4 / Version 2\r\nFile size                                : 1.37 GiB\r\nDuration                                 : 1h 41mn\r\nOverall bit rate                         : 1 923 Kbps\r\nEncoded date                             : UTC 2015-11-13 17:25:42\r\nWriting application                      : mkvmerge v8.3.0 ('Over the Horizon') 64bit\r\nWriting library                          : libebml v1.3.1 + libmatroska v1.4.2\r\nDURATION                                 : 01:36:23.468000000\r\nNUMBER_OF_FRAMES                         : 737\r\nNUMBER_OF_BYTES                          : 26136\r\n_STATISTICS_WRITING_APP                  : mkvmerge v8.3.0 ('Over the Horizon') 64bit\r\n_STATISTICS_WRITING_DATE_UTC             : 2015-11-13 17:25:42\r\n_STATISTICS_TAGS                         : BPS DURATION NUMBER_OF_FRAMES NUMBER_OF_BYTES\r\n\r\nVideo\r\nID                                       : 1\r\nFormat                                   : AVC\r\nFormat/Info                              : Advanced Video Codec\r\nFormat profile                           :   \r\nFormat settings, CABAC                   : Yes\r\nFormat settings, ReFrames                : 4 frames\r\nCodec ID                                 : V_MPEG4/ISO/AVC\r\nDuration                                 : 1h 41mn\r\nBit rate                                 : 1 537 Kbps\r\nWidth                                    : 854 pixels\r\nHeight                                   : 480 pixels\r\nDisplay aspect ratio                     : 16:9\r\nFrame rate mode                          : Constant\r\nFrame rate                               : 23.976 fps\r\nColor space                              : YUV\r\nChroma subsampling                       : 4:2:0\r\nBit depth                                : 8 bits\r\nScan type                                : Progressive\r\nBits/(Pixel*Frame)                       : 0.156\r\nStream size                              : 1.07 GiB (78%)\r\nWriting library                          : x264 core 142 r2479 dd79a61\r\nEncoding settings                        : ...\r\nDefault                                  : Yes\r\nForced                                   : No\r\nColor range                              : Limited\r\nColor primaries                          : BT.709\r\nTransfer characteristics                 : BT.709\r\nMatrix coefficients                      : BT.709\r\nDURATION                                 : 01:41:48.186000000\r\nNUMBER_OF_FRAMES                         : 146450\r\nNUMBER_OF_BYTES                          : 1173607543\r\n_STATISTICS_WRITING_APP                  : mkvmerge v8.3.0 ('Over the Horizon') 64bit\r\n_STATISTICS_WRITING_DATE_UTC             : 2015-11-13 17:25:42\r\n_STATISTICS_TAGS                         : BPS DURATION NUMBER_OF_FRAMES NUMBER_OF_BYTES\r\n\r\nAudio\r\nID                                       : 2\r\nFormat                                   : AC-3\r\nFormat/Info                              : Audio Coding 3\r\nMode extension                           : CM (complete main)\r\nFormat settings, Endianness              : Big\r\nCodec ID                                 : A_AC3\r\nDuration                                 : 1h 41mn\r\nBit rate mode                            : Constant\r\nBit rate                                 : 384 Kbps\r\nChannel(s)                               : 6 channels\r\nChannel positions                        : Front: L C R, Side: L R, LFE\r\nSampling rate                            : 48.0 KHz\r\nCompression mode                         : Lossy\r\nDelay relative to video                  : -5ms\r\nStream size                              : 280 MiB (20%)\r\nTitle                                    : Surround\r\nLanguage                                 : English\r\nDefault                                  : Yes\r\nForced                                   : No\r\nDURATION                                 : 01:41:47.104000000\r\nNUMBER_OF_FRAMES                         : 190847\r\nNUMBER_OF_BYTES                          : 293140992\r\n_STATISTICS_WRITING_APP                  : mkvmerge v8.3.0 ('Over the Horizon') 64bit\r\n_STATISTICS_WRITING_DATE_UTC             : 2015-11-13 17:25:42\r\n_STATISTICS_TAGS                         : BPS DURATION NUMBER_OF_FRAMES NUMBER_OF_BYTES\r\n\r\nText #1\r\nID                                       : 3\r\nFormat                                   : UTF-8\r\nCodec ID                                 : S_TEXT/UTF8\r\nCodec ID/Info                            : UTF-8 Plain Text\r\nLanguage                                 : English\r\nDefault                                  : Yes\r\nForced                                   : No\r\n\r\nText #2\r\nID                                       : 4\r\nFormat                                   : UTF-8\r\nCodec ID                                 : S_TEXT/UTF8\r\nCodec ID/Info                            : UTF-8 Plain Text\r\nLanguage                                 : French\r\nDefault                                  : No\r\nForced                                   : No\r\n\r\nText #3\r\nID                                       : 5\r\nFormat                                   : UTF-8\r\nCodec ID                                 : S_TEXT/UTF8\r\nCodec ID/Info                            : UTF-8 Plain Text\r\nLanguage                                 : Dutch\r\nDefault                                  : No\r\nForced                                   : No\r\n\r\nMenu\r\n00:00:00.000                             : :Chapter 1\r\n00:07:15.477                             : :Chapter 2\r\n00:12:27.372                             : :Chapter 3\r\n00:19:52.066                             : :Chapter 4\r\n00:30:27.617                             : :Chapter 5\r\n00:37:03.721                             : :Chapter 6\r\n00:50:45.209                             : :Chapter 7\r\n01:00:40.512                             : :Chapter 8\r\n01:12:52.076                             : :Chapter 9\r\n01:18:52.937                             : :Chapter 10\r\n01:23:24.458                             : :Chapter 11\r\n01:32:30.253                             : :Chapter 12","torrent":{"xt":"urn:btih:90cccfc07ed6d3f8be36d1eb2778e56dfa08a11e","amp;dn":"Orphans%5B1998%5DBDRIP%5BEng%5D","amp;tr":["udp%3A%2F%2Ftracker.leechers-paradise.org%3A6969","udp%3A%2F%2Fzer0day.ch%3A1337","udp%3A%2F%2Fopen.demonii.com%3A1337","udp%3A%2F%2Ftracker.coppersurfer.tk%3A6969","udp%3A%2F%2Fexodus.desync.com%3A6969"],"infoHash":"90cccfc07ed6d3f8be36d1eb2778e56dfa08a11e","infoHashBuffer":{"type":"Buffer","data":[144,204,207,192,126,214,211,248,190,54,209,235,39,120,229,109,250,8,161,30]},"announce":[],"urlList":[]}}